<svg width="128" height="128" viewBox="0 0 128 128" fill="none" xmlns="http://www.w3.org/2000/svg">
<rect width="128" height="128" fill="#C4C4C4"/>
<path d="M61.3955 69.5918C61.4229 67.9648 61.6074 66.6797 61.9492 65.7363C62.291 64.793 62.9883 63.7471 64.041 62.5986L66.7275 59.8301C67.876 58.5312 68.4502 57.1367 68.4502 55.6465C68.4502 54.2109 68.0742 53.0898 67.3223 52.2832C66.5703 51.4629 65.4766 51.0527 64.041 51.0527C62.6465 51.0527 61.5254 51.4219 60.6777 52.1602C59.8301 52.8984 59.4062 53.8896 59.4062 55.1338H55.6123C55.6396 52.9189 56.4258 51.1348 57.9707 49.7812C59.5293 48.4141 61.5527 47.7305 64.041 47.7305C66.625 47.7305 68.6348 48.4277 70.0703 49.8223C71.5195 51.2031 72.2441 53.1035 72.2441 55.5234C72.2441 57.916 71.1367 60.2744 68.9219 62.5986L66.6865 64.8135C65.6885 65.9209 65.1895 67.5137 65.1895 69.5918H61.3955ZM61.2314 76.0928C61.2314 75.4775 61.416 74.9648 61.7852 74.5547C62.168 74.1309 62.7285 73.9189 63.4668 73.9189C64.2051 73.9189 64.7656 74.1309 65.1484 74.5547C65.5312 74.9648 65.7227 75.4775 65.7227 76.0928C65.7227 76.708 65.5312 77.2207 65.1484 77.6309C64.7656 78.0273 64.2051 78.2256 63.4668 78.2256C62.7285 78.2256 62.168 78.0273 61.7852 77.6309C61.416 77.2207 61.2314 76.708 61.2314 76.0928Z" fill="#828282"/>
</svg>
